# Blender v2.79 (sub 0) OBJ File: 'myBoard.blend'
# www.blender.org
mtllib plansza.mtl
o Cube_Cube.002
v -45.000000 -1.000000 45.000000
v -45.000000 1.000000 45.000000
v -45.000000 -1.000000 -45.000000
v -45.000000 1.000000 -45.000000
v 45.000000 -1.000000 45.000000
v 45.000000 1.000000 45.000000
v 45.000000 -1.000000 -45.000000
v 45.000000 1.000000 -45.000000
v -40.238850 1.000000 40.238850
v -40.238850 1.000000 -40.238850
v 40.238850 1.000000 -40.238850
v 40.238850 1.000000 40.238850
vt 0.964765 0.042895
vt 0.964765 0.497849
vt 0.525856 0.497849
vt 0.525856 0.042895
vt 0.976519 0.524526
vt 0.463605 0.524526
vt 0.463605 0.029701
vt 0.976519 0.029701
vt 0.521044 0.495539
vt 0.521044 0.022955
vt 0.976960 0.022955
vt 0.976960 0.495538
vt 0.489657 0.039093
vt 0.967795 0.039093
vt 0.967795 0.500369
vt 0.489657 0.500369
vt 0.452149 0.514908
vt 0.452148 0.049162
vt 0.917895 0.049162
vt 0.917895 0.514908
vt 0.147354 0.994890
vt 0.147354 -0.000576
vt 0.200016 0.052086
vt 0.200016 0.942228
vt 0.944415 0.032864
vt 0.944415 0.204141
vt 0.766878 0.204141
vt 0.766878 0.032865
vt 0.145622 0.951548
vt 0.145622 0.027935
vt 0.194483 0.076796
vt 0.194483 0.902687
vt 0.387313 0.003400
vt 0.387313 1.003354
vt 0.334414 0.950454
vt 0.334414 0.056299
vt 0.055743 0.962477
vt 0.055743 0.017006
vt 0.105760 0.067023
vt 0.105760 0.912460
vn -1.0000 0.0000 0.0000
vn 0.0000 0.0000 -1.0000
vn 1.0000 0.0000 0.0000
vn 0.0000 0.0000 1.0000
vn 0.0000 -1.0000 0.0000
vn 0.0000 1.0000 0.0000
usemtl Material.001
s off
f 1/1/1 2/2/1 4/3/1 3/4/1
f 3/5/2 4/6/2 8/7/2 7/8/2
f 7/9/3 8/10/3 6/11/3 5/12/3
f 5/13/4 6/14/4 2/15/4 1/16/4
f 3/17/5 7/18/5 5/19/5 1/20/5
f 6/21/6 8/22/6 11/23/6 12/24/6
f 11/25/6 10/26/6 9/27/6 12/28/6
f 4/29/6 2/30/6 9/31/6 10/32/6
f 2/33/6 6/34/6 12/35/6 9/36/6
f 8/37/6 4/38/6 10/39/6 11/40/6
